<?xml version="1.0" encoding="UTF-8"?><svg xmlns="http://www.w3.org/2000/svg" viewBox="0 0 1898 308.69"><defs><style>.cls-1,.cls-2{fill:#0076d1;}.cls-2{font-family:OpenSans-Semibold, 'Open Sans';font-size:182.34px;font-weight:700;}</style></defs><g id="Layer_1"><path class="cls-1" d="M296.56,94.27c-7.77-18.38-18.9-34.88-33.08-49.06-14.17-14.17-30.68-25.3-49.06-33.08C195.39,4.08,175.18,0,154.35,0s-41.05,4.08-60.08,12.13c-18.38,7.77-34.88,18.9-49.06,33.08-14.17,14.17-25.3,30.68-33.08,49.06C4.08,113.3,0,133.51,0,154.35c0,7.53,.53,14.97,1.59,22.31-.31,.3-.63,.58-.97,.83,.43,.46,.86,.9,1.3,1.33,1.94,12.22,5.35,24.13,10.21,35.61,7.77,18.38,18.9,34.88,33.08,49.06,14.17,14.17,30.68,25.3,49.06,33.08,19.03,8.05,39.25,12.13,60.08,12.13s41.05-4.08,60.08-12.13c18.38-7.77,34.88-18.9,49.06-33.08,14.17-14.17,25.3-30.68,33.08-49.06,8.05-19.03,12.13-39.24,12.13-60.08s-4.08-41.05-12.13-60.08h0ZM9.2,175.01c-.95-6.73-1.45-13.6-1.45-20.58,16.23,12.53,33.39,12.72,34.32,12.72v-7.75c-.22,0-18.6-.21-33.99-14.94,.39-5.91,1.14-11.73,2.22-17.43,15.43,10.69,30.89,10.85,31.77,10.85v-7.75c-.2,0-15.55-.17-29.94-11.43,1.33-5.3,2.94-10.48,4.83-15.53,12.94,6.72,24.36,6.85,25.11,6.85v-7.75c-.16,0-10.52-.12-22.17-6.37C42.51,44.07,94.27,7.75,154.34,7.75c56.02,0,104.8,31.59,129.48,77.89-5.78,2.42-12.3,4.16-19.4,4.44l.3,7.74c8.36-.33,15.95-2.37,22.59-5.19,2.39,5.12,4.48,10.39,6.27,15.81-7.74,4.8-17.7,9.05-29.17,9.49l.3,7.74c12.23-.48,22.81-4.61,31.18-9.51,1.54,5.71,2.74,11.55,3.59,17.51-8.21,6.21-20.4,12.95-35.07,13.53l.3,7.74c14.58-.57,26.8-6.34,35.75-12.4,.31,3.9,.47,7.83,.47,11.81,0,2.64-.07,5.25-.21,7.86-8.2,6.46-20.88,13.88-36.32,14.49l.3,7.74c14.24-.56,26.22-6.07,35.11-11.97-.7,5.63-1.71,11.16-3.03,16.58-9.05-1.07-34.85-1.81-89.53,11.56v-34.02c17.85,18.67,40.14,18.91,41.2,18.91v-7.75c-.25,0-25.09-.27-41.19-23.38v-15.08c17.85,18.67,40.13,18.91,41.19,18.91v-7.75c-.25,0-25.09-.27-41.19-23.38v-17.29c17.85,18.67,40.13,18.91,41.19,18.91v-7.75c-.25,0-25.09-.27-41.19-23.38v-17.05c17.85,18.67,40.13,18.92,41.19,18.92v-7.75c-.05,0-6.49-.07-14.82-3.07-10.85-3.91-19.71-10.75-26.37-20.32v-15.64c17.85,18.67,40.13,18.92,41.19,18.92v-7.75c-.05,0-6.49-.07-14.82-3.07-11.03-3.98-20.02-10.98-26.71-20.79l-2.93-4.3-3.28,4.05c-.19,.23-18.97,23.05-46.52,24.13l.3,7.74c20.54-.81,36.39-11.91,45.02-19.63v16.98c-4.55,4.96-21.71,21.84-45.33,22.77l.3,7.74c20.54-.81,36.39-11.91,45.02-19.63v18.39c-4.55,4.96-21.71,21.84-45.33,22.77l.3,7.74c20.54-.81,36.39-11.91,45.02-19.63v18.63c-4.55,4.96-21.71,21.84-45.33,22.77l.3,7.74c20.54-.81,36.39-11.91,45.02-19.63v16.41c-4.55,4.96-21.71,21.84-45.33,22.77l.3,7.74c20.54-.81,36.39-11.91,45.02-19.63v36.68c-4.43,1.14-9.03,2.36-13.83,3.67-27.8,7.65-55.72,9.69-79.93,9.2v-38.07c17.85,18.67,40.13,18.91,41.19,18.91v-7.75c-.25,0-25.09-.27-41.19-23.38v-17.29c17.85,18.67,40.13,18.91,41.19,18.91v-7.75c-.25,0-25.09-.27-41.19-23.38v-17.05c17.85,18.67,40.13,18.92,41.19,18.92v-7.75c-.25,0-25.09-.27-41.19-23.38v-15.64c17.85,18.67,40.13,18.92,41.19,18.92v-7.75c-.25,0-25.44-.27-41.53-23.87l-2.93-4.29-3.28,4.03c-.19,.23-19.07,23.06-46.53,24.13l.3,7.74c20.54-.81,36.39-11.91,45.02-19.63v16.97c-4.57,4.96-21.8,21.85-45.33,22.78l.3,7.74c20.54-.81,36.39-11.91,45.02-19.63v18.39c-4.55,4.96-21.72,21.84-45.33,22.77l.3,7.74c20.54-.81,36.39-11.91,45.02-19.63v18.63c-4.55,4.96-21.72,21.84-45.33,22.77l.3,7.74c20.54-.81,36.39-11.91,45.02-19.63v38.55c-11.1-.47-21.29-1.44-30.12-2.57-26.71-3.42-46.33-8.92-52.22-10.69-1.73-5.03-3.19-10.18-4.37-15.44,15.09,10.01,29.91,10.18,30.77,10.18v-7.75c-.19-.01-17.7-.21-32.84-13.91h0Zm258.24,72.52c-25.55,8.39-63.06,5.73-108.61-7.74-18.55-5.49-35.05-11.77-46.56-16.52,.12,0,.24,0,.36,0,3.52,0,7.02-.06,10.49-.17,22.84-.73,44.58-3.9,64.62-9.42,43.71-12.03,71.53-15.88,87.17-16.99,9.79-.69,16.16-.43,19.82-.08-5.68,18.84-15.06,36.09-27.3,50.91h0Zm-113.09,53.41c-60.78,0-113.03-37.17-135.22-89.98,9.17,2.49,25.98,6.52,47.59,9.3,8.55,1.1,17.06,1.9,25.48,2.4l-.11,.23c.28,.14,28.59,13.69,64.43,24.29,21.11,6.25,40.7,10.28,58.22,11.99,6.41,.62,12.55,.94,18.42,.94,8.94,0,17.23-.73,24.82-2.17-26.54,26.55-63.2,43-103.63,43h0Z"/><path class="cls-1" d="M120.07,67.7c13.26,0,24.05-10.79,24.05-24.05s-10.79-24.05-24.05-24.05-24.05,10.79-24.05,24.05,10.79,24.05,24.05,24.05Zm0-40.35c8.99,0,16.3,7.31,16.3,16.3s-7.31,16.3-16.3,16.3-16.3-7.31-16.3-16.3,7.31-16.3,16.3-16.3Z"/></g><g id="Layer_2"><text class="cls-2" transform="translate(346.85 208.7)"><tspan x="0" y="0">Spherical Scenery</tspan></text></g></svg>