<?xml version="1.0" encoding="UTF-8"?><svg xmlns="http://www.w3.org/2000/svg" viewBox="0 0 1898 308.69"><defs><style>.cls-1{fill:#0076d1;}</style></defs><g id="Layer_1"><path class="cls-1" d="M296.56,94.27c-7.77-18.38-18.9-34.88-33.08-49.06-14.17-14.17-30.68-25.3-49.06-33.08C195.39,4.08,175.18,0,154.35,0s-41.05,4.08-60.08,12.13c-18.38,7.77-34.88,18.9-49.06,33.08-14.17,14.17-25.3,30.68-33.08,49.06C4.08,113.3,0,133.51,0,154.35c0,7.53,.53,14.97,1.59,22.31-.31,.3-.63,.58-.97,.83,.43,.46,.86,.9,1.3,1.33,1.94,12.22,5.35,24.13,10.21,35.61,7.77,18.38,18.9,34.88,33.08,49.06,14.17,14.17,30.68,25.3,49.06,33.08,19.03,8.05,39.25,12.13,60.08,12.13s41.05-4.08,60.08-12.13c18.38-7.77,34.88-18.9,49.06-33.08,14.17-14.17,25.3-30.68,33.08-49.06,8.05-19.03,12.13-39.24,12.13-60.08s-4.08-41.05-12.13-60.08h0ZM9.2,175.01c-.95-6.73-1.45-13.6-1.45-20.58,16.23,12.53,33.39,12.72,34.32,12.72v-7.75c-.22,0-18.6-.21-33.99-14.94,.39-5.91,1.14-11.73,2.22-17.43,15.43,10.69,30.89,10.85,31.77,10.85v-7.75c-.2,0-15.55-.17-29.94-11.43,1.33-5.3,2.94-10.48,4.83-15.53,12.94,6.72,24.36,6.85,25.11,6.85v-7.75c-.16,0-10.52-.12-22.17-6.37C42.51,44.07,94.27,7.75,154.34,7.75c56.02,0,104.8,31.59,129.48,77.89-5.78,2.42-12.3,4.16-19.4,4.44l.3,7.74c8.36-.33,15.95-2.37,22.59-5.19,2.39,5.12,4.48,10.39,6.27,15.81-7.74,4.8-17.7,9.05-29.17,9.49l.3,7.74c12.23-.48,22.81-4.61,31.18-9.51,1.54,5.71,2.74,11.55,3.59,17.51-8.21,6.21-20.4,12.95-35.07,13.53l.3,7.74c14.58-.57,26.8-6.34,35.75-12.4,.31,3.9,.47,7.83,.47,11.81,0,2.64-.07,5.25-.21,7.86-8.2,6.46-20.88,13.88-36.32,14.49l.3,7.74c14.24-.56,26.22-6.07,35.11-11.97-.7,5.63-1.71,11.16-3.03,16.58-9.05-1.07-34.85-1.81-89.53,11.56v-34.02c17.85,18.67,40.14,18.91,41.2,18.91v-7.75c-.25,0-25.09-.27-41.19-23.38v-15.08c17.85,18.67,40.13,18.91,41.19,18.91v-7.75c-.25,0-25.09-.27-41.19-23.38v-17.29c17.85,18.67,40.13,18.91,41.19,18.91v-7.75c-.25,0-25.09-.27-41.19-23.38v-17.05c17.85,18.67,40.13,18.92,41.19,18.92v-7.75c-.05,0-6.49-.07-14.82-3.07-10.85-3.91-19.71-10.75-26.37-20.32v-15.64c17.85,18.67,40.13,18.92,41.19,18.92v-7.75c-.05,0-6.49-.07-14.82-3.07-11.03-3.98-20.02-10.98-26.71-20.79l-2.93-4.3-3.28,4.05c-.19,.23-18.97,23.05-46.52,24.13l.3,7.74c20.54-.81,36.39-11.91,45.02-19.63v16.98c-4.55,4.96-21.71,21.84-45.33,22.77l.3,7.74c20.54-.81,36.39-11.91,45.02-19.63v18.39c-4.55,4.96-21.71,21.84-45.33,22.77l.3,7.74c20.54-.81,36.39-11.91,45.02-19.63v18.63c-4.55,4.96-21.71,21.84-45.33,22.77l.3,7.74c20.54-.81,36.39-11.91,45.02-19.63v16.41c-4.55,4.96-21.71,21.84-45.33,22.77l.3,7.74c20.54-.81,36.39-11.91,45.02-19.63v36.68c-4.43,1.14-9.03,2.36-13.83,3.67-27.8,7.65-55.72,9.69-79.93,9.2v-38.07c17.85,18.67,40.13,18.91,41.19,18.91v-7.75c-.25,0-25.09-.27-41.19-23.38v-17.29c17.85,18.67,40.13,18.91,41.19,18.91v-7.75c-.25,0-25.09-.27-41.19-23.38v-17.05c17.85,18.67,40.13,18.92,41.19,18.92v-7.75c-.25,0-25.09-.27-41.19-23.38v-15.64c17.85,18.67,40.13,18.92,41.19,18.92v-7.75c-.25,0-25.44-.27-41.53-23.87l-2.93-4.29-3.28,4.03c-.19,.23-19.07,23.06-46.53,24.13l.3,7.74c20.54-.81,36.39-11.91,45.02-19.63v16.97c-4.57,4.96-21.8,21.85-45.33,22.78l.3,7.74c20.54-.81,36.39-11.91,45.02-19.63v18.39c-4.55,4.96-21.72,21.84-45.33,22.77l.3,7.74c20.54-.81,36.39-11.91,45.02-19.63v18.63c-4.55,4.96-21.72,21.84-45.33,22.77l.3,7.74c20.54-.81,36.39-11.91,45.02-19.63v38.55c-11.1-.47-21.29-1.44-30.12-2.57-26.71-3.42-46.33-8.92-52.22-10.69-1.73-5.03-3.19-10.18-4.37-15.44,15.09,10.01,29.91,10.18,30.77,10.18v-7.75c-.19-.01-17.7-.21-32.84-13.91h0Zm258.24,72.52c-25.55,8.39-63.06,5.73-108.61-7.74-18.55-5.49-35.05-11.77-46.56-16.52,.12,0,.24,0,.36,0,3.52,0,7.02-.06,10.49-.17,22.84-.73,44.58-3.9,64.62-9.42,43.71-12.03,71.53-15.88,87.17-16.99,9.79-.69,16.16-.43,19.82-.08-5.68,18.84-15.06,36.09-27.3,50.91h0Zm-113.09,53.41c-60.78,0-113.03-37.17-135.22-89.98,9.17,2.49,25.98,6.52,47.59,9.3,8.55,1.1,17.06,1.9,25.48,2.4l-.11,.23c.28,.14,28.59,13.69,64.43,24.29,21.11,6.25,40.7,10.28,58.22,11.99,6.41,.62,12.55,.94,18.42,.94,8.94,0,17.23-.73,24.82-2.17-26.54,26.55-63.2,43-103.63,43h0Z"/><path class="cls-1" d="M120.07,67.7c13.26,0,24.05-10.79,24.05-24.05s-10.79-24.05-24.05-24.05-24.05,10.79-24.05,24.05,10.79,24.05,24.05,24.05Zm0-40.35c8.99,0,16.3,7.31,16.3,16.3s-7.31,16.3-16.3,16.3-16.3-7.31-16.3-16.3,7.31-16.3,16.3-16.3Z"/></g><g id="Layer_2"><g><path class="cls-1" d="M439.09,173.35c0,11.57-4.18,20.66-12.55,27.24-8.37,6.59-19.91,9.88-34.63,9.88s-26.77-2.28-36.15-6.86v-20.12c5.93,2.79,12.24,4.99,18.92,6.59,6.68,1.6,12.89,2.4,18.65,2.4,8.43,0,14.65-1.6,18.65-4.81,4.01-3.21,6.01-7.51,6.01-12.91,0-4.87-1.84-8.99-5.52-12.38-3.68-3.38-11.28-7.39-22.79-12.02-11.87-4.81-20.24-10.3-25.11-16.47-4.87-6.17-7.3-13.59-7.3-22.26,0-10.86,3.86-19.41,11.57-25.64,7.72-6.23,18.07-9.35,31.07-9.35s24.87,2.73,37.22,8.19l-6.77,17.36c-11.57-4.87-21.9-7.3-30.98-7.3-6.89,0-12.11,1.5-15.67,4.5-3.56,3-5.34,6.96-5.34,11.89,0,3.38,.71,6.28,2.14,8.68s3.77,4.67,7.03,6.81c3.26,2.14,9.14,4.96,17.63,8.46,9.56,3.98,16.56,7.69,21.01,11.13,4.45,3.44,7.72,7.33,9.79,11.66,2.08,4.33,3.12,9.44,3.12,15.31Z"/><path class="cls-1" d="M512.01,210.48c-12.46,0-22.14-4.48-29.02-13.44h-1.25c.83,8.31,1.25,13.35,1.25,15.14v40.33h-20.92V110.23h16.92c.47,1.84,1.45,6.23,2.94,13.18h1.07c6.53-9.97,16.32-14.96,29.38-14.96,12.29,0,21.86,4.45,28.71,13.35,6.86,8.9,10.28,21.4,10.28,37.48s-3.49,28.64-10.46,37.66c-6.98,9.02-16.6,13.53-28.89,13.53Zm-5.08-84.94c-8.31,0-14.38,2.43-18.21,7.3-3.83,4.87-5.74,12.64-5.74,23.33v3.12c0,11.99,1.9,20.67,5.7,26.04,3.8,5.37,10,8.06,18.61,8.06,7.24,0,12.82-2.97,16.74-8.9s5.88-14.39,5.88-25.38-1.94-19.39-5.83-25.06c-3.89-5.67-9.6-8.5-17.14-8.5Z"/><path class="cls-1" d="M662.3,208.7h-21.01v-60.54c0-7.6-1.53-13.27-4.59-17.01-3.06-3.74-7.91-5.61-14.56-5.61-8.79,0-15.24,2.63-19.37,7.88-4.13,5.25-6.19,14.05-6.19,26.4v48.88h-20.92V70.16h20.92v35.17c0,5.64-.36,11.66-1.07,18.07h1.34c2.85-4.75,6.81-8.43,11.89-11.04,5.08-2.61,11-3.92,17.76-3.92,23.86,0,35.79,12.02,35.79,36.06v64.19Z"/><path class="cls-1" d="M734.42,210.48c-15.31,0-27.29-4.46-35.93-13.4-8.64-8.93-12.95-21.23-12.95-36.9s4.01-28.73,12.02-37.93c8.01-9.2,19.02-13.8,33.03-13.8,13,0,23.27,3.95,30.81,11.84,7.54,7.9,11.31,18.76,11.31,32.59v11.31h-65.62c.3,9.56,2.88,16.9,7.75,22.04,4.87,5.13,11.72,7.7,20.57,7.7,5.82,0,11.23-.55,16.25-1.65,5.02-1.1,10.4-2.92,16.16-5.48v17.01c-5.11,2.43-10.27,4.16-15.49,5.16-5.22,1.01-11.19,1.51-17.9,1.51Zm-3.83-86.18c-6.65,0-11.98,2.11-15.98,6.32-4.01,4.21-6.4,10.36-7.17,18.43h44.69c-.12-8.13-2.08-14.29-5.88-18.47-3.8-4.18-9.02-6.28-15.67-6.28Z"/><path class="cls-1" d="M846.42,108.45c4.21,0,7.69,.3,10.42,.89l-2.05,19.5c-2.97-.71-6.05-1.07-9.26-1.07-8.37,0-15.15,2.73-20.34,8.19-5.19,5.46-7.79,12.55-7.79,21.28v51.46h-20.92V110.23h16.38l2.76,17.36h1.07c3.26-5.88,7.52-10.54,12.78-13.98,5.25-3.44,10.91-5.16,16.96-5.16Z"/><path class="cls-1" d="M873.84,84.14c0-3.74,1.02-6.62,3.07-8.64,2.05-2.02,4.97-3.03,8.77-3.03s6.54,1.01,8.59,3.03c2.05,2.02,3.07,4.9,3.07,8.64s-1.02,6.37-3.07,8.41-4.91,3.07-8.59,3.07-6.72-1.02-8.77-3.07-3.07-4.85-3.07-8.41Zm22.17,124.56h-20.92V110.23h20.92v98.47Z"/><path class="cls-1" d="M965.64,210.48c-14.9,0-26.22-4.35-33.97-13.04-7.75-8.69-11.62-21.17-11.62-37.44s4.05-29.29,12.15-38.2,19.81-13.35,35.12-13.35c10.39,0,19.74,1.93,28.05,5.79l-6.32,16.83c-8.85-3.44-16.15-5.16-21.9-5.16-17.04,0-25.55,11.31-25.55,33.92,0,11.04,2.12,19.34,6.37,24.89,4.24,5.55,10.46,8.32,18.65,8.32,9.32,0,18.13-2.31,26.44-6.94v18.25c-3.74,2.2-7.73,3.77-11.97,4.72-4.24,.95-9.39,1.42-15.45,1.42Z"/><path class="cls-1" d="M1077.82,208.7l-4.18-13.71h-.71c-4.75,6-9.53,10.08-14.33,12.24s-10.98,3.25-18.52,3.25c-9.67,0-17.23-2.61-22.66-7.83-5.43-5.22-8.15-12.61-8.15-22.17,0-10.15,3.77-17.81,11.31-22.97,7.54-5.16,19.02-7.98,34.46-8.46l17.01-.53v-5.25c0-6.29-1.47-11-4.41-14.11-2.94-3.12-7.49-4.67-13.67-4.67-5.05,0-9.88,.74-14.51,2.23-4.63,1.48-9.08,3.24-13.35,5.25l-6.77-14.96c5.34-2.79,11.19-4.91,17.54-6.37,6.35-1.45,12.35-2.18,17.99-2.18,12.52,0,21.98,2.73,28.36,8.19,6.38,5.46,9.57,14.04,9.57,25.73v66.33h-14.96Zm-31.16-14.25c7.6,0,13.7-2.12,18.3-6.37,4.6-4.24,6.9-10.19,6.9-17.85v-8.55l-12.64,.53c-9.85,.36-17.02,2-21.5,4.94s-6.72,7.43-6.72,13.49c0,4.39,1.3,7.79,3.92,10.19,2.61,2.4,6.53,3.61,11.75,3.61Z"/><path class="cls-1" d="M1142.9,208.7h-20.92V70.16h20.92V208.7Z"/><path class="cls-1" d="M1297.47,173.35c0,11.57-4.18,20.66-12.55,27.24-8.37,6.59-19.92,9.88-34.63,9.88s-26.77-2.28-36.15-6.86v-20.12c5.93,2.79,12.24,4.99,18.92,6.59s12.89,2.4,18.65,2.4c8.43,0,14.65-1.6,18.65-4.81,4.01-3.21,6.01-7.51,6.01-12.91,0-4.87-1.84-8.99-5.52-12.38-3.68-3.38-11.28-7.39-22.79-12.02-11.87-4.81-20.24-10.3-25.11-16.47-4.87-6.17-7.3-13.59-7.3-22.26,0-10.86,3.86-19.41,11.57-25.64,7.72-6.23,18.07-9.35,31.07-9.35s24.87,2.73,37.22,8.19l-6.77,17.36c-11.57-4.87-21.9-7.3-30.98-7.3-6.89,0-12.11,1.5-15.67,4.5-3.56,3-5.34,6.96-5.34,11.89,0,3.38,.71,6.28,2.14,8.68,1.42,2.4,3.77,4.67,7.03,6.81,3.26,2.14,9.14,4.96,17.63,8.46,9.56,3.98,16.56,7.69,21.01,11.13,4.45,3.44,7.72,7.33,9.79,11.66,2.08,4.33,3.12,9.44,3.12,15.31Z"/><path class="cls-1" d="M1360.15,210.48c-14.9,0-26.22-4.35-33.97-13.04-7.75-8.69-11.62-21.17-11.62-37.44s4.05-29.29,12.15-38.2c8.1-8.9,19.81-13.35,35.12-13.35,10.39,0,19.74,1.93,28.05,5.79l-6.32,16.83c-8.85-3.44-16.15-5.16-21.9-5.16-17.04,0-25.55,11.31-25.55,33.92,0,11.04,2.12,19.34,6.37,24.89,4.24,5.55,10.46,8.32,18.65,8.32,9.32,0,18.13-2.31,26.44-6.94v18.25c-3.74,2.2-7.73,3.77-11.97,4.72-4.24,.95-9.39,1.42-15.45,1.42Z"/><path class="cls-1" d="M1453.72,210.48c-15.31,0-27.29-4.46-35.92-13.4-8.64-8.93-12.96-21.23-12.96-36.9s4.01-28.73,12.02-37.93c8.01-9.2,19.02-13.8,33.03-13.8,13,0,23.27,3.95,30.81,11.84,7.54,7.9,11.31,18.76,11.31,32.59v11.31h-65.62c.3,9.56,2.88,16.9,7.75,22.04,4.87,5.13,11.72,7.7,20.57,7.7,5.82,0,11.23-.55,16.25-1.65,5.01-1.1,10.4-2.92,16.16-5.48v17.01c-5.11,2.43-10.27,4.16-15.49,5.16-5.22,1.01-11.19,1.51-17.9,1.51Zm-3.83-86.18c-6.65,0-11.98,2.11-15.98,6.32-4.01,4.21-6.4,10.36-7.17,18.43h44.7c-.12-8.13-2.08-14.29-5.88-18.47-3.8-4.18-9.02-6.28-15.67-6.28Z"/><path class="cls-1" d="M1602.41,208.7h-21.01v-60.54c0-7.6-1.53-13.27-4.58-17.01-3.06-3.74-7.91-5.61-14.56-5.61-8.84,0-15.31,2.61-19.41,7.83-4.1,5.22-6.14,13.98-6.14,26.27v49.06h-20.92V110.23h16.38l2.94,12.91h1.07c2.97-4.69,7.18-8.31,12.64-10.86,5.46-2.55,11.51-3.83,18.16-3.83,23.62,0,35.44,12.02,35.44,36.06v64.19Z"/><path class="cls-1" d="M1674.52,210.48c-15.31,0-27.29-4.46-35.92-13.4-8.64-8.93-12.96-21.23-12.96-36.9s4.01-28.73,12.02-37.93c8.01-9.2,19.02-13.8,33.03-13.8,13,0,23.27,3.95,30.81,11.84,7.54,7.9,11.31,18.76,11.31,32.59v11.31h-65.62c.3,9.56,2.88,16.9,7.75,22.04,4.87,5.13,11.72,7.7,20.57,7.7,5.82,0,11.23-.55,16.25-1.65,5.01-1.1,10.4-2.92,16.16-5.48v17.01c-5.11,2.43-10.27,4.16-15.49,5.16-5.22,1.01-11.19,1.51-17.9,1.51Zm-3.83-86.18c-6.65,0-11.98,2.11-15.98,6.32-4.01,4.21-6.4,10.36-7.17,18.43h44.7c-.12-8.13-2.08-14.29-5.88-18.47-3.8-4.18-9.02-6.28-15.67-6.28Z"/><path class="cls-1" d="M1786.53,108.45c4.21,0,7.69,.3,10.42,.89l-2.05,19.5c-2.97-.71-6.05-1.07-9.26-1.07-8.37,0-15.15,2.73-20.34,8.19-5.19,5.46-7.79,12.55-7.79,21.28v51.46h-20.92V110.23h16.38l2.76,17.36h1.07c3.26-5.88,7.52-10.54,12.78-13.98,5.25-3.44,10.91-5.16,16.96-5.16Z"/><path class="cls-1" d="M1800.24,110.23h22.79l20.03,55.82c3.03,7.96,5.04,15.43,6.05,22.44h.71c.53-3.26,1.51-7.23,2.94-11.89,1.42-4.66,8.96-26.78,22.61-66.38h22.61l-42.11,111.56c-7.66,20.48-20.42,30.72-38.29,30.72-4.63,0-9.14-.5-13.53-1.51v-16.56c3.15,.71,6.74,1.07,10.77,1.07,10.09,0,17.18-5.85,21.28-17.54l3.65-9.26-39.53-98.47Z"/></g></g></svg>